# xmcd
# Track frame offsets:
# 150
# 20425
# 37934
# 62410
# 77542
# 99283
# 119521
# 140916
# 159718
#
# Disc length: 2440 seconds
# Revision: 0
# Processed by: cddbd v1.5.2PL0 Copyright (c) Steve Scherf et al.
# Submitted via: VisiTrax 2.10.3.257 - For more info visit www.synapsa.com
#
DISCID=6c098609
DTITLE=Georgia Blue Dogs - Georgia Blue Dogs
DYEAR=2008
DGENRE=Blues
TTITLE0=Let Me Love You
TTITLE1=Hard Times
TTITLE2=Lies
TTITLE3=This Girl Is All Mine
TTITLE4=Define Your Terms
TTITLE5=Sweet Darlene
TTITLE6=Lonely
TTITLE7=Amy
TTITLE8=Don't Be Cruel
EXTD=
EXTT0=
EXTT1=
EXTT2=
EXTT3=
EXTT4=
EXTT5=
EXTT6=
EXTT7=
EXTT8=
PLAYORDER=
